<?xml version="1.0" encoding="UTF-8" standalone="no"?>
<!DOCTYPE svg PUBLIC "-//W3C//DTD SVG 1.1//EN"
 "http://www.w3.org/Graphics/SVG/1.1/DTD/svg11.dtd">
<!-- Generated by graphviz version 2.40.1 (20161225.0304)
 -->
<!-- Title: test Pages: 1 -->
<svg width="360pt" height="26pt"
 viewBox="0.00 0.00 360.00 26.31" xmlns="http://www.w3.org/2000/svg" xmlns:xlink="http://www.w3.org/1999/xlink">
<g id="graph0" class="graph" transform="scale(.598 .598) rotate(0) translate(4 40)">
<title>test</title>
<polygon fill="#ffffff" stroke="transparent" points="-4,4 -4,-40 598,-40 598,4 -4,4"/>
<!-- 7 -->
<g id="node1" class="node">
<title>7</title>
<ellipse fill="none" stroke="#000000" cx="27" cy="-18" rx="27" ry="18"/>
<text text-anchor="middle" x="27" y="-14.3" font-family="Times,serif" font-size="14.00" fill="#000000">7</text>
</g>
<!-- 6 -->
<g id="node2" class="node">
<title>6</title>
<ellipse fill="none" stroke="#000000" cx="117" cy="-18" rx="27" ry="18"/>
<text text-anchor="middle" x="117" y="-14.3" font-family="Times,serif" font-size="14.00" fill="#000000">6</text>
</g>
<!-- 7&#45;&gt;6 -->
<g id="edge1" class="edge">
<title>7&#45;&gt;6</title>
<path fill="none" stroke="#000000" d="M54.003,-18C62.0277,-18 70.9665,-18 79.5309,-18"/>
<polygon fill="#000000" stroke="#000000" points="79.7051,-21.5001 89.705,-18 79.705,-14.5001 79.7051,-21.5001"/>
</g>
<!-- 2 -->
<g id="node3" class="node">
<title>2</title>
<ellipse fill="none" stroke="#000000" cx="207" cy="-18" rx="27" ry="18"/>
<text text-anchor="middle" x="207" y="-14.3" font-family="Times,serif" font-size="14.00" fill="#000000">2</text>
</g>
<!-- 6&#45;&gt;2 -->
<g id="edge2" class="edge">
<title>6&#45;&gt;2</title>
<path fill="none" stroke="#000000" d="M144.003,-18C152.0277,-18 160.9665,-18 169.5309,-18"/>
<polygon fill="#000000" stroke="#000000" points="169.7051,-21.5001 179.705,-18 169.705,-14.5001 169.7051,-21.5001"/>
</g>
<!-- 3 -->
<g id="node4" class="node">
<title>3</title>
<ellipse fill="none" stroke="#000000" cx="297" cy="-18" rx="27" ry="18"/>
<text text-anchor="middle" x="297" y="-14.3" font-family="Times,serif" font-size="14.00" fill="#000000">3</text>
</g>
<!-- 2&#45;&gt;3 -->
<g id="edge3" class="edge">
<title>2&#45;&gt;3</title>
<path fill="none" stroke="#000000" d="M234.003,-18C242.0277,-18 250.9665,-18 259.5309,-18"/>
<polygon fill="#000000" stroke="#000000" points="259.7051,-21.5001 269.705,-18 259.705,-14.5001 259.7051,-21.5001"/>
</g>
<!-- 9 -->
<g id="node5" class="node">
<title>9</title>
<ellipse fill="none" stroke="#000000" cx="387" cy="-18" rx="27" ry="18"/>
<text text-anchor="middle" x="387" y="-14.3" font-family="Times,serif" font-size="14.00" fill="#000000">9</text>
</g>
<!-- 3&#45;&gt;9 -->
<g id="edge4" class="edge">
<title>3&#45;&gt;9</title>
<path fill="none" stroke="#000000" d="M324.003,-18C332.0277,-18 340.9665,-18 349.5309,-18"/>
<polygon fill="#000000" stroke="#000000" points="349.7051,-21.5001 359.705,-18 349.705,-14.5001 349.7051,-21.5001"/>
</g>
<!-- a1 -->
<g id="node6" class="node">
<title>a1</title>
<ellipse fill="none" stroke="#000000" cx="477" cy="-18" rx="27" ry="18"/>
<text text-anchor="middle" x="477" y="-14.3" font-family="Times,serif" font-size="14.00" fill="#000000">1</text>
</g>
<!-- 9&#45;&gt;a1 -->
<g id="edge5" class="edge">
<title>9&#45;&gt;a1</title>
<path fill="none" stroke="#000000" d="M414.003,-18C422.0277,-18 430.9665,-18 439.5309,-18"/>
<polygon fill="#000000" stroke="#000000" points="439.7051,-21.5001 449.705,-18 439.705,-14.5001 439.7051,-21.5001"/>
</g>
<!-- b1 -->
<g id="node7" class="node">
<title>b1</title>
<ellipse fill="none" stroke="#000000" cx="567" cy="-18" rx="27" ry="18"/>
<text text-anchor="middle" x="567" y="-14.3" font-family="Times,serif" font-size="14.00" fill="#000000">1</text>
</g>
<!-- a1&#45;&gt;b1 -->
<g id="edge6" class="edge">
<title>a1&#45;&gt;b1</title>
<path fill="none" stroke="#000000" d="M504.003,-18C512.0277,-18 520.9665,-18 529.5309,-18"/>
<polygon fill="#000000" stroke="#000000" points="529.7051,-21.5001 539.705,-18 529.705,-14.5001 529.7051,-21.5001"/>
</g>
</g>
</svg>
